<svg width="27" height="27" viewBox="0 0 27 27" fill="none" xmlns="http://www.w3.org/2000/svg">
<g filter="url(#filter0_d_0_1682)">
<circle cx="13.5" cy="11.5" r="9.5" fill="url(#paint0_linear_0_1682)"/>
</g>
<path fill-rule="evenodd" clip-rule="evenodd" d="M9.04969 10.1717C9.95732 11.0049 12.1714 13.5307 12.7963 14.6668C12.8434 14.7523 13.0828 14.7564 13.1482 14.6668C14.9175 12.243 17.9123 8.69638 18.7778 7.98161C18.992 7.80466 18.6631 7.49349 18.4259 7.62976C17.0685 8.40971 14.1163 11.0645 12.9131 12.4233C12.8744 12.4671 12.7191 12.4792 12.6793 12.441C12.2308 12.0101 9.96999 10.4079 9.16982 10.0185C8.98112 9.92665 8.898 10.0324 9.04969 10.1717Z" fill="white"/>
<defs>
<filter id="filter0_d_0_1682" x="0" y="0" width="27" height="27" filterUnits="userSpaceOnUse" color-interpolation-filters="sRGB">
<feFlood flood-opacity="0" result="BackgroundImageFix"/>
<feColorMatrix in="SourceAlpha" type="matrix" values="0 0 0 0 0 0 0 0 0 0 0 0 0 0 0 0 0 0 127 0" result="hardAlpha"/>
<feOffset dy="2"/>
<feGaussianBlur stdDeviation="2"/>
<feColorMatrix type="matrix" values="0 0 0 0 0.941176 0 0 0 0 0.847059 0 0 0 0 0.827451 0 0 0 1 0"/>
<feBlend mode="normal" in2="BackgroundImageFix" result="effect1_dropShadow_0_1682"/>
<feBlend mode="normal" in="SourceGraphic" in2="effect1_dropShadow_0_1682" result="shape"/>
</filter>
<linearGradient id="paint0_linear_0_1682" x1="2.09798" y1="10.5811" x2="13.2864" y2="23.1328" gradientUnits="userSpaceOnUse">
<stop stop-color="#F8E6E2"/>
<stop offset="1" stop-color="#E9C9C2"/>
</linearGradient>
</defs>
</svg>
