<svg width="99" height="99" viewBox="0 0 99 99" fill="none" xmlns="http://www.w3.org/2000/svg">
<path fill-rule="evenodd" clip-rule="evenodd" d="M41.1634 83.2148L29.195 86.2074L25.3905 74.4718L13.5293 71.0792L16.1023 59.0136L7.52648 50.1449L15.7875 40.9823L12.795 29.0139L24.5306 25.2094L27.9232 13.3482L39.9888 15.9212L48.8575 7.34541L58.0201 15.6065L69.9885 12.614L73.793 24.3495L85.6542 27.7422L83.0812 39.8077L91.657 48.6764L83.3959 57.839L86.3884 69.8074L74.6528 73.6119L71.2602 85.4731L59.1947 82.9001L50.326 91.4759L41.1634 83.2148Z" fill="url(#paint0_linear_9394_9)"/>
<path fill-rule="evenodd" clip-rule="evenodd" d="M49 33C52.6401 33 55.6312 35.7785 55.9683 39.3303C58.2479 40.1216 59.9027 42.2489 59.9958 44.7751L60 45V47.5011C64.7278 47.0074 67.1583 51.5465 65.4579 54.9472C64.7993 56.2644 63.3974 57.0063 61.99 57.1479C61.8848 58.9882 60.9502 60.6064 59.5543 61.6344C59.8522 62.1439 59.9999 62.775 59.9999 63.5L60.0042 63.5944C60.0446 64.0248 60.3766 64.3134 61.2425 64.5299C61.7783 64.6638 62.104 65.2067 61.9701 65.7425C61.8361 66.2783 61.2932 66.6041 60.7574 66.4701C59.0185 66.0354 57.9999 65.0168 57.9999 63.5L57.9961 63.331C57.9778 62.9453 57.894 62.6986 57.7493 62.541C57.4425 62.6343 57.1254 62.7038 56.8 62.7471V62.8H56H43H42.8V62.7967C42.0196 62.7712 41.2769 62.5966 40.5995 62.3005C40.583 62.3129 40.566 62.3248 40.5485 62.3363L40.4472 62.3944C40.1812 62.5274 40.0292 62.7951 40.0038 63.331L40 63.5C40 65.0168 38.9814 66.0354 37.2425 66.4701C36.7067 66.6041 36.1638 66.2783 36.0298 65.7425C35.8959 65.2067 36.2216 64.6638 36.7574 64.5299C37.6234 64.3134 37.9553 64.0248 37.9957 63.5944L38 63.5C38 62.5073 38.2769 61.6907 38.8373 61.1212C37.7836 60.1059 37.1004 58.7089 37.0102 57.1527C35.3302 57.3093 33.4114 56.5589 32.6055 54.9472C30.9128 51.5618 33.3139 47.0481 38 47.4947V45L38.0041 44.7751C38.0972 42.2489 39.752 40.1216 42.0316 39.3303C42.3687 35.7785 45.3599 33 49 33ZM59.9982 56.9189C59.5622 56.7584 59.1708 56.5215 58.8564 56.2071C57.0352 54.3859 57.8817 51 61.0635 51C61.6158 51 62.0635 51.4477 62.0635 52C62.0635 52.5523 61.6158 53 61.0635 53L60.9191 53.0057C59.8488 53.0921 59.6201 54.1424 60.2706 54.7929C60.972 55.4943 63.0813 55.2284 63.6691 54.0528C64.7194 51.9521 63.2151 49.156 60.1739 49.4939C57.6612 49.7731 56.3466 51.2192 56.0585 54.0995C56.0497 54.1877 56.0297 54.2721 56 54.3514V55V57V59H54H44H42V57V55V54.051C41.7021 51.203 40.3881 49.7715 37.8895 49.4939C34.8484 49.156 33.3441 51.9521 34.3944 54.0528C34.9822 55.2284 37.0914 55.4943 37.7929 54.7929C38.4434 54.1424 38.2147 53.0921 37.1443 53.0057L37 53C36.4477 53 36 52.5523 36 52C36 51.4477 36.4477 51 37 51C40.1818 51 41.0283 54.3859 39.2071 56.2071C39.1413 56.2729 39.0722 56.3352 39 56.3942V56.8C39 58.9422 40.6839 60.6911 42.8003 60.7951L43 60.8H56L56.1996 60.7951C58.2767 60.693 59.9373 59.0065 59.9982 56.9189ZM54.1947 53C54.6561 50.4831 55.9453 48.7745 58 47.9713V45C58 42.8578 56.316 41.1089 54.1996 41.0049L54 41V40C54 37.2386 51.7614 35 49 35C46.3112 35 44.1181 37.1223 44.0046 39.7831L44 40V41L43.8003 41.0049C41.6839 41.1089 40 42.8578 40 45V47.9468C42.0916 48.7395 43.4026 50.4573 43.8687 53H54.1947ZM54 57V55H44V57H54ZM49 47C49.5522 47 50 47.4477 50 48C50 48.5523 49.5522 49 49 49C48.4477 49 48 48.5523 48 48C48 47.4477 48.4477 47 49 47ZM50 40C50 39.4477 49.5522 39 49 39C48.4477 39 48 39.4477 48 40C48 40.5523 48.4477 41 49 41C49.5522 41 50 40.5523 50 40ZM45 43C45.5523 43 46 43.4477 46 44C46 44.5523 45.5523 45 45 45C44.4477 45 44 44.5523 44 44C44 43.4477 44.4477 43 45 43ZM54 44C54 43.4477 53.5522 43 53 43C52.4477 43 52 43.4477 52 44C52 44.5523 52.4477 45 53 45C53.5522 45 54 44.5523 54 44Z" fill="url(#paint1_linear_9394_9)"/>
<defs>
<linearGradient id="paint0_linear_9394_9" x1="4.65667" y1="32.0486" x2="36.8904" y2="91.8202" gradientUnits="userSpaceOnUse">
<stop stop-color="#F8E6E2"/>
<stop offset="1" stop-color="#E4BEB5"/>
</linearGradient>
<linearGradient id="paint1_linear_9394_9" x1="23.2209" y1="42.129" x2="41.3502" y2="75.8264" gradientUnits="userSpaceOnUse">
<stop stop-color="#AC6C44"/>
<stop offset="1" stop-color="#301103"/>
</linearGradient>
</defs>
</svg>
