<svg width="32" height="32" viewBox="0 0 32 32" fill="none" xmlns="http://www.w3.org/2000/svg">
<circle cx="16" cy="16" r="16" fill="url(#paint0_linear_9349_19)"/>
<path fill-rule="evenodd" clip-rule="evenodd" d="M17.353 23.1155C15.3125 22.0606 13.5248 20.5696 12.0397 18.676C10.8167 17.1086 9.993 15.641 9.44701 14.0602C9.09133 13.0385 8.95406 12.1932 9.01333 11.3978C9.06325 10.7622 9.30349 10.2131 9.7278 9.76048L10.8947 8.51583C11.2285 8.17638 11.6091 8 12.0054 8C12.4047 8 12.7822 8.17638 13.1036 8.5125C13.3157 8.72216 13.531 8.95512 13.7369 9.18142L13.7455 9.19087C13.8486 9.30403 13.9489 9.4142 14.0552 9.52753L14.9849 10.5193C15.325 10.8787 15.5028 11.2947 15.5028 11.7173C15.5028 12.14 15.3219 12.556 14.9849 12.9154C14.8882 13.0185 14.7915 13.1217 14.6979 13.2249C14.4327 13.5144 14.1581 13.8106 13.8649 14.0935C14.0739 14.6093 14.3734 15.1151 14.8196 15.7175C15.7025 16.8723 16.626 17.7708 17.6431 18.4597C17.7461 18.5296 17.8615 18.5928 17.9863 18.6594L17.9863 18.6594C18.0862 18.7127 18.1922 18.7692 18.2952 18.8325L19.4121 17.6411C19.7397 17.2916 20.1235 17.1053 20.5228 17.1053C20.9222 17.1053 21.3028 17.2916 21.621 17.6444L23.4961 19.6445C24.1669 20.36 24.1669 21.2985 23.5024 22.0373C23.3588 22.197 23.2091 22.3534 23.0625 22.5032C23.0477 22.5185 23.0329 22.5338 23.0182 22.549C22.819 22.7551 22.6288 22.9518 22.4603 23.1688C22.4572 23.1754 22.4509 23.1821 22.4478 23.1854C21.9393 23.7744 21.3153 24.0607 20.5384 24.0607C20.4695 24.0607 20.4035 24.0576 20.3348 24.0544L20.3263 24.054C19.1688 23.9741 18.1298 23.5082 17.353 23.1155ZM10.2707 10.3362C9.97116 10.6557 9.81204 11.0251 9.7746 11.4677C9.72468 12.1366 9.84636 12.8721 10.1677 13.7873C10.6856 15.2782 11.4687 16.6693 12.6325 18.1635C14.0458 19.9673 15.7493 21.3883 17.6899 22.39C18.4044 22.7528 19.356 23.1787 20.3793 23.2486C20.4323 23.252 20.4885 23.2553 20.5415 23.2553C21.0938 23.2553 21.5212 23.0623 21.88 22.6496C22.0747 22.4011 22.2889 22.1793 22.4962 21.9646C22.5082 21.9522 22.5201 21.9398 22.5321 21.9274C22.6787 21.7777 22.816 21.6346 22.947 21.4848C23.3276 21.0622 23.3308 20.6295 22.9564 20.2302L21.075 18.2268C20.9534 18.087 20.7599 17.9306 20.5228 17.9306C20.3294 17.9306 20.1328 18.0337 19.9519 18.2268L18.785 19.4714C18.732 19.528 18.5697 19.6977 18.3201 19.6977C18.2203 19.6977 18.1205 19.6711 18.0175 19.6145C18.0113 19.6112 18.0058 19.6079 18.0003 19.6045C17.9949 19.6012 17.9894 19.5979 17.9832 19.5946C17.8802 19.5247 17.7648 19.4614 17.64 19.3949C17.6175 19.3826 17.5947 19.3703 17.5717 19.3579C17.4579 19.2965 17.3398 19.2328 17.2282 19.1553C16.1424 18.4198 15.1565 17.4647 14.2205 16.2333C13.6995 15.5345 13.3657 14.9487 13.1254 14.3331C13.1239 14.3281 13.1223 14.3239 13.1207 14.3198C13.1192 14.3156 13.1176 14.3114 13.1161 14.3065C13.0537 14.1068 13.0131 13.8439 13.2721 13.5676L13.2877 13.551C13.5646 13.2895 13.8175 13.0166 14.0834 12.7297C14.1051 12.7062 14.1269 12.6827 14.1488 12.6591C14.1971 12.6075 14.2455 12.5551 14.2938 12.5027C14.3422 12.4503 14.3906 12.3979 14.4389 12.3463C14.6324 12.14 14.7322 11.9303 14.7322 11.724C14.7322 11.5176 14.6324 11.308 14.4389 11.1016L13.5092 10.1099C13.455 10.0504 13.4008 9.99179 13.3469 9.93354C13.2923 9.87446 13.2381 9.81581 13.1847 9.75715C13.1565 9.72661 13.1285 9.69631 13.1008 9.66623C12.92 9.47016 12.7482 9.28377 12.567 9.10488C12.3891 8.91186 12.1957 8.81535 12.0054 8.81535C11.8119 8.81535 11.6122 8.91186 11.4313 9.09822L10.2707 10.3362Z" fill="white"/>
<defs>
<linearGradient id="paint0_linear_9349_19" x1="-6.26157" y1="16.3596" x2="16.4232" y2="36.3526" gradientUnits="userSpaceOnUse">
<stop stop-color="#EBBE9D"/>
<stop offset="1" stop-color="#DFAB86"/>
</linearGradient>
</defs>
</svg>
