<svg width="125" height="128" fill="none" xmlns="http://www.w3.org/2000/svg"><circle cx="62.5" cy="65.5" r="62.5" fill="#B47F74"/><circle cx="62.5" cy="62.5" r="62.5" fill="url(#paint0_linear_0_1182)"/><g filter="url(#filter0_i_0_1182)"><path fill-rule="evenodd" clip-rule="evenodd" d="M71.374 63.361a2 2 0 010 3.277l-10.227 7.16c-1.326.927-3.147-.021-3.147-1.64V57.842c0-1.618 1.821-2.566 3.147-1.638l10.227 7.158z" fill="#fff"/></g><path d="M70.8 64.18a1 1 0 010 1.64l-10.226 7.158a1 1 0 01-1.574-.82V57.842a1 1 0 011.574-.819L70.8 64.181z" stroke="#fff" stroke-width="2"/><defs><linearGradient id="paint0_linear_0_1182" x1="-8.511" y1="53.622" x2="59.433" y2="128.195" gradientUnits="userSpaceOnUse"><stop stop-color="#F8E6E2"/><stop offset="1" stop-color="#E4BEB5"/></linearGradient><filter id="filter0_i_0_1182" x="58" y="54.838" width="15.227" height="19.324" filterUnits="userSpaceOnUse" color-interpolation-filters="sRGB"><feFlood flood-opacity="0" result="BackgroundImageFix"/><feBlend in="SourceGraphic" in2="BackgroundImageFix" result="shape"/><feColorMatrix in="SourceAlpha" values="0 0 0 0 0 0 0 0 0 0 0 0 0 0 0 0 0 0 127 0" result="hardAlpha"/><feOffset dx="1" dy="-1"/><feGaussianBlur stdDeviation="2"/><feComposite in2="hardAlpha" operator="arithmetic" k2="-1" k3="1"/><feColorMatrix values="0 0 0 0 0 0 0 0 0 0 0 0 0 0 0 0 0 0 0.5 0"/><feBlend in2="shape" result="effect1_innerShadow_0_1182"/></filter></defs></svg>