<svg width="1071" height="1071" fill="none" xmlns="http://www.w3.org/2000/svg"><g opacity=".043" filter="url(#filter0_i_9410_4)"><circle cx="534.5" cy="535.5" r="214.5" fill="url(#paint0_radial_9410_4)"/></g><g opacity=".016" filter="url(#filter1_i_9410_4)"><circle cx="534" cy="535" r="313" fill="url(#paint1_radial_9410_4)"/></g><path d="M681.615 381.14c85.22 82.296 88.206 217.445 6.683 301.864-81.522 84.419-216.693 86.151-301.913 3.856-85.22-82.296-88.206-217.445-6.683-301.864 81.522-84.419 216.693-86.152 301.913-3.856z" stroke="url(#paint2_linear_9410_4)"/><path opacity=".17" d="M370.549 271.796c146.366-91.46 338.784-47.546 429.78 98.078 90.995 145.623 46.115 337.818-100.251 429.277-146.366 91.46-338.784 47.545-429.779-98.078-90.996-145.623-46.115-337.818 100.25-429.277z" stroke="url(#paint3_linear_9410_4)"/><defs><radialGradient id="paint0_radial_9410_4" cx="0" cy="0" r="1" gradientUnits="userSpaceOnUse" gradientTransform="rotate(-160.92 376.653 264.311) scale(311.195)"><stop stop-color="#C88C61"/><stop offset="1" stop-color="#EBBE9C"/></radialGradient><radialGradient id="paint1_radial_9410_4" cx="0" cy="0" r="1" gradientUnits="userSpaceOnUse" gradientTransform="rotate(-160.92 405.937 283.15) scale(454.099)"><stop stop-color="#C88C61"/><stop offset="1" stop-color="#EBBE9C"/></radialGradient><linearGradient id="paint2_linear_9410_4" x1="452.815" y1="276.326" x2="255.581" y2="639.182" gradientUnits="userSpaceOnUse"><stop stop-color="#B27B6F"/><stop offset=".242" stop-color="#BE8D83" stop-opacity=".238"/><stop offset=".713" stop-color="#D5B1A9" stop-opacity=".01"/><stop offset="1" stop-color="#E3C6C0"/></linearGradient><linearGradient id="paint3_linear_9410_4" x1="142.31" y1="558.716" x2="587.627" y2="966.251" gradientUnits="userSpaceOnUse"><stop stop-color="#B27B6F"/><stop offset=".242" stop-color="#BE8D83" stop-opacity=".238"/><stop offset=".713" stop-color="#D5B1A9" stop-opacity=".01"/><stop offset="1" stop-color="#E3C6C0"/></linearGradient><filter id="filter0_i_9410_4" x="320" y="321" width="429" height="429" filterUnits="userSpaceOnUse" color-interpolation-filters="sRGB"><feFlood flood-opacity="0" result="BackgroundImageFix"/><feBlend in="SourceGraphic" in2="BackgroundImageFix" result="shape"/><feColorMatrix in="SourceAlpha" values="0 0 0 0 0 0 0 0 0 0 0 0 0 0 0 0 0 0 127 0" result="hardAlpha"/><feOffset/><feGaussianBlur stdDeviation="6"/><feComposite in2="hardAlpha" operator="arithmetic" k2="-1" k3="1"/><feColorMatrix values="0 0 0 0 0.898039 0 0 0 0 0.717647 0 0 0 0 0.603922 0 0 0 1 0"/><feBlend in2="shape" result="effect1_innerShadow_9410_4"/></filter><filter id="filter1_i_9410_4" x="221" y="222" width="626" height="626" filterUnits="userSpaceOnUse" color-interpolation-filters="sRGB"><feFlood flood-opacity="0" result="BackgroundImageFix"/><feBlend in="SourceGraphic" in2="BackgroundImageFix" result="shape"/><feColorMatrix in="SourceAlpha" values="0 0 0 0 0 0 0 0 0 0 0 0 0 0 0 0 0 0 127 0" result="hardAlpha"/><feOffset/><feGaussianBlur stdDeviation="6"/><feComposite in2="hardAlpha" operator="arithmetic" k2="-1" k3="1"/><feColorMatrix values="0 0 0 0 0.898039 0 0 0 0 0.717647 0 0 0 0 0.603922 0 0 0 1 0"/><feBlend in2="shape" result="effect1_innerShadow_9410_4"/></filter></defs></svg>