<svg width="100" height="32" fill="none" xmlns="http://www.w3.org/2000/svg"><path fill-rule="evenodd" clip-rule="evenodd" d="M41.103 27.934a1.462 1.462 0 00-.733-.183 1.34 1.34 0 00-1.236.73c.018-.464.127-.816.325-1.054.199-.237.51-.403.933-.497l1.248-.286-.068-.366-1.326.304c-.513.12-.89.348-1.132.685-.242.338-.363.823-.363 1.456 0 .607.135 1.083.405 1.428.27.344.65.517 1.14.517.293 0 .551-.062.776-.186.225-.123.4-.297.526-.52a1.54 1.54 0 00.188-.767c0-.28-.06-.53-.18-.75-.12-.22-.288-.39-.503-.511zm-.242 2.259a1.075 1.075 0 01-.553.143 1.09 1.09 0 01-.557-.143.995.995 0 01-.385-.402 1.223 1.223 0 01-.137-.584c0-.218.046-.409.137-.574a.982.982 0 01.383-.385 1.12 1.12 0 01.559-.137c.21 0 .396.046.559.137.163.092.29.22.38.385.09.165.134.356.134.574 0 .217-.046.412-.137.584a1 1 0 01-.383.402zm3.786-1.47c.37.004.652.087.845.248.193.16.29.393.29.696 0 .315-.104.557-.312.725-.208.169-.509.251-.902.248l-1.192-.006v-2.956h.4v1.034l.87.011zm.52 1.447c-.141.115-.348.17-.622.166l-.77-.011V29.01l.77.011c.278.004.486.058.624.163.139.105.208.266.208.483 0 .221-.07.39-.21.503zm4.65-2.515c.277 0 .527.064.75.191.223.128.398.306.526.534.127.229.19.487.19.776 0 .288-.063.547-.19.776a1.39 1.39 0 01-.526.536 1.46 1.46 0 01-.75.194c-.262 0-.5-.057-.714-.171a1.408 1.408 0 01-.52-.475 1.475 1.475 0 01-.233-.697h-.674v1.315h-.4v-2.956h.4v1.275h.68c.03-.254.111-.48.244-.677a1.39 1.39 0 01.514-.458c.21-.108.444-.163.703-.163zm.548 2.513a1.048 1.048 0 01-.548.146 1.03 1.03 0 01-.933-.556 1.26 1.26 0 01-.14-.602c0-.225.047-.425.14-.601a1.01 1.01 0 01.385-.408 1.07 1.07 0 01.548-.143 1.018 1.018 0 01.933.551c.094.176.14.376.14.6 0 .226-.046.426-.14.602a1.031 1.031 0 01-.385.41zm4.476-2.136h-1.118v2.602h-.4v-2.602h-1.117v-.354h2.635v.354zm1.715-.354h-.4v2.956h.36l1.967-2.35v2.35h.4v-2.956h-.355l-1.972 2.349v-2.35zm7.485 1.64h-.674v1.316h-.399v-2.956h.4v1.298h.68l1.039-1.298h.433l-1.164 1.433 1.248 1.523h-.472l-1.09-1.315zm3.271 1.15c.229.13.486.194.77.194.285 0 .542-.064.77-.194a1.39 1.39 0 00.537-.536c.13-.229.194-.487.194-.776 0-.288-.065-.547-.194-.775a1.374 1.374 0 00-.537-.534 1.553 1.553 0 00-.77-.192c-.284 0-.541.064-.77.192a1.394 1.394 0 00-.54.534 1.53 1.53 0 00-.196.775c0 .289.066.547.197.776.131.228.31.407.54.536zm.77-.16c.21 0 .399-.048.565-.143a.998.998 0 00.39-.408 1.26 1.26 0 00.141-.601 1.26 1.26 0 00-.14-.601 1 1 0 00-.39-.408 1.116 1.116 0 00-.566-.143c-.21 0-.398.048-.564.143a1.017 1.017 0 00-.394.408 1.24 1.24 0 00-.143.6c0 .226.048.426.143.602.096.176.227.312.394.408.166.095.355.143.564.143zm5.576-.478c0-.39-.2-.631-.602-.725a.783.783 0 00.368-.255.656.656 0 00.132-.413.64.64 0 00-.286-.562c-.191-.131-.456-.197-.793-.197h-1.304v2.956h1.344c.378 0 .663-.07.854-.208.191-.139.287-.337.287-.596zm-2.097-.837h.888c.229 0 .404-.043.526-.13a.433.433 0 00.182-.376c0-.165-.06-.288-.182-.37-.122-.083-.297-.125-.526-.125h-.888v1.001zm1.512 1.203c-.127.082-.318.123-.573.123h-.939v-1.028h.978c.251 0 .435.042.55.126.117.084.175.215.175.39 0 .177-.063.306-.191.389zm3.473.466a1.53 1.53 0 01-.77-.194 1.413 1.413 0 01-.54-.536 1.53 1.53 0 01-.196-.776c0-.288.066-.547.197-.775.13-.229.31-.407.54-.534.228-.128.484-.192.77-.192.284 0 .54.064.77.192.228.127.407.305.536.534.13.228.194.487.194.775 0 .289-.065.547-.194.776-.13.228-.308.407-.537.536-.228.13-.485.194-.77.194zm.565-.497a1.115 1.115 0 01-.565.143c-.21 0-.398-.048-.565-.143a1.016 1.016 0 01-.393-.408 1.24 1.24 0 01-.143-.601c0-.225.047-.425.143-.601.096-.177.227-.312.393-.408.167-.095.355-.143.565-.143.21 0 .398.047.565.143a1 1 0 01.39.408c.094.176.141.376.141.6 0 .226-.047.426-.14.602a.998.998 0 01-.391.408zm4.05-2.51c.276 0 .528.063.752.189.225.125.401.302.529.53.127.23.19.49.19.782 0 .296-.063.558-.19.787a1.35 1.35 0 01-.526.531 1.514 1.514 0 01-.756.188 1.4 1.4 0 01-.649-.149 1.23 1.23 0 01-.475-.435v1.647h-.399v-4.047h.382v.585c.12-.195.278-.345.475-.45.197-.105.419-.157.666-.157zm.533 2.51a1.12 1.12 0 01-.562.143c-.21 0-.398-.048-.565-.143a1.017 1.017 0 01-.393-.408 1.242 1.242 0 01-.143-.601c0-.225.047-.424.143-.599a1.04 1.04 0 01.393-.407c.167-.098.355-.146.565-.146.206 0 .393.048.562.146.169.097.3.233.396.407.096.175.144.374.144.599 0 .225-.048.425-.144.601a1.012 1.012 0 01-.396.408zm3.608-.846h-.674v1.315h-.4v-2.956h.4v1.298h.68l1.04-1.298h.432l-1.163 1.433 1.248 1.523h-.472l-1.09-1.315zm3.327-1.641h-.399v2.956h.36l1.967-2.35v2.35h.399v-2.956h-.354l-1.973 2.349v-2.35zm4.204 0h.4v1.31h1.86v-1.31h.398v2.956h-.399V29.33h-1.86v1.304h-.399v-2.956zm4.929.354h1.692v-.354h-2.091v2.956h.399v-2.602z" fill="#fff"/><path fill-rule="evenodd" clip-rule="evenodd" d="M.854 23.294l10.403-6.006a2.027 2.027 0 01-.005-.142l.003-.098-10.4-6.004v12.25zm12.741-8.008a1.915 1.915 0 011.232.926l10.23-5.907-11.461-6.618v11.599zm1.475 1.77l.002.09c0 .045-.002.09-.005.135l10.416 6.013v-12.25L15.07 17.055zm-.263 1.058a1.93 1.93 0 01-1.212.892V30.65l11.463-6.618-10.25-5.918zm-2.066.895a1.911 1.911 0 01-1.22-.89L1.278 24.033l11.463 6.618V19.01zm-1.24-2.802a1.916 1.916 0 011.24-.924V3.688L1.28 10.305l10.22 5.902zm2.409.191a1.057 1.057 0 10-1.498 1.497 1.057 1.057 0 001.497-1.497zm-.502-13.802l12.689 7.326c.142.07.24.215.24.383v13.738l-.001.003v.019l-.001.002v.009l-.002.004v.007l-.002.01v.004a.43.43 0 01-.234.315l-12.69 7.326-.002.002-.003.002-.003.002-.004.002-.003.002-.002.002h-.002l-.003.002-.003.002-.002.001-.001.001-.004.002-.003.002-.004.002-.003.002h-.002l-.002.001-.003.002-.004.002-.003.001-.003.002-.004.002-.004.001-.003.002h-.002l-.002.001-.003.002-.004.001-.004.002h-.003l-.003.002h-.001l-.003.002-.004.001h-.002l-.002.001-.004.002-.003.001h-.004l-.004.002-.003.001h-.001l-.004.001-.004.001h-.002l-.002.001-.004.001-.004.001-.003.001h-.005l-.002.002h-.005l-.004.002h-.008l-.004.001-.004.001h-.004l-.003.001h-.009l-.002.001h-.006l-.005.001h-.008l-.003.001h-.055l-.004-.001h-.007l-.001-.001h-.004l-.004-.001h-.009l-.003-.002h-.004l-.005-.001h-.003l-.004-.001-.004-.001h-.001l-.003-.001h-.004l-.004-.002h-.004l-.004-.002h-.004l-.004-.002-.003-.001h-.004l-.004-.002-.003-.001-.005-.001-.003-.002h-.004l-.004-.002-.004-.001-.003-.002-.004-.001-.003-.001-.004-.002-.004-.002h-.002L13 31.78l-.004-.002-.003-.001-.004-.002-.004-.002-.002-.001h-.001l-.003-.002-.004-.002h-.002l-.002-.002-.003-.001-.003-.002-.004-.002-.003-.002-.002-.001h-.001l-.004-.003-.003-.002h-.001l-.002-.002-.004-.002-.003-.002-.003-.002-.003-.002-.003-.002-12.69-7.326A.427.427 0 010 24.032v-13.74l.001-.014v-.007l.001-.007v-.002l.001-.005v-.006l.002-.01.001-.004a.43.43 0 01.234-.315l12.689-7.326.003-.002.003-.003.003-.001.003-.003.004-.002h.002l.001-.002.004-.002.003-.002.003-.002.003-.002.003-.001.004-.002.003-.003h.003l.001-.001.004-.002.003-.002h.001l.003-.001.003-.002.002-.001h.001l.004-.002.004-.002h.002l.002-.001.003-.002h.002l.002-.001.004-.002.003-.001.003-.001.004-.002.004-.001h.002l.002-.001.004-.002h.004l.003-.002.004-.001h.003v-.001l.005-.001.004-.002h.003l.004-.001.004-.001.004-.001h.004l.003-.002h.005l.004-.002h.008l.004-.001.004-.001h.004l.003-.001h.007l.004-.001h.006l.004-.001h.009l.003-.001h.056l.004.001h.006l.004.001h.002l.004.001h.008l.004.002h.004l.004.001h.004l.004.001.004.001.004.001.004.001h.003l.005.002h.004l.002.001h.001l.004.002h.004l.001.001.003.001h.004l.003.002.004.001.004.002h.002l.002.001.004.001.003.002h.004l.003.002.004.001.002.001.002.001.003.002h.002l.002.001.004.002.003.002h.004l.003.003.003.001.004.002.003.002h.002l.002.001.004.003.003.001.004.002.003.002.003.002.003.002.004.002.001.001h.002l.004.003.002.002.004.002.003.003.003.001z" fill="url(#paint0_linear_0_1790)"/><path fill-rule="evenodd" clip-rule="evenodd" d="M73.014 6.638c1.528 0 2.921.344 4.18 1.03a7.83 7.83 0 011.688 1.231 7.703 7.703 0 012.102 3.586c.18.69.271 1.42.271 2.184 0 .764-.09 1.494-.271 2.186a7.689 7.689 0 01-.814 1.965 7.695 7.695 0 01-1.287 1.644 7.763 7.763 0 01-1.69 1.236c-.628.342-1.293.6-1.99.771a9.134 9.134 0 01-2.189.258 9.092 9.092 0 01-2.496-.334 7.905 7.905 0 01-2.194-1.005 7.46 7.46 0 01-1.744-1.576 7.216 7.216 0 01-.716-1.083v3.909h-1.09V0h1.09v10.62c.209-.382.45-.741.72-1.076a7.553 7.553 0 011.757-1.568 8.064 8.064 0 012.196-1.004 8.988 8.988 0 012.477-.333zM56.93 2.828a1.084 1.084 0 00.797-.001c.118-.05.232-.125.338-.224.107-.1.188-.208.242-.323a.885.885 0 00.085-.38.949.949 0 00-.085-.397.977.977 0 00-.248-.325 1.068 1.068 0 00-.722-.28 1.033 1.033 0 00-.745.286.945.945 0 00-.312.716c0 .131.027.257.08.376.052.116.128.225.227.322.101.101.216.178.343.23zm-3.575 4.225L45.691 22.64h-.917a8182.19 8182.19 0 00-6.372-12.966l-1.45-2.946h1.236l7.045 14.483 7.044-14.483h1.237l-.16.324zm3.662-.325h.865V22.64h-1.09V6.728h.225zM74.94 21.485c-.608.15-1.25.224-1.926.224a8.054 8.054 0 01-1.926-.224 7.15 7.15 0 01-1.733-.674 6.661 6.661 0 01-1.46-1.074 6.744 6.744 0 01-1.798-3.139 7.783 7.783 0 01-.233-1.93c0-.68.078-1.323.232-1.929a6.738 6.738 0 01.695-1.711 6.496 6.496 0 011.103-1.423 6.53 6.53 0 011.459-1.062 7.253 7.253 0 011.735-.665 8.18 8.18 0 011.926-.22c.677 0 1.32.074 1.927.22a7.28 7.28 0 011.735.665 6.511 6.511 0 011.458 1.062c.427.414.796.889 1.104 1.423a6.74 6.74 0 01.695 1.711c.154.606.232 1.25.232 1.93 0 .679-.078 1.323-.232 1.929a6.743 6.743 0 01-1.8 3.14 6.619 6.619 0 01-1.459 1.073 7.14 7.14 0 01-1.734.674zm24.834-6.59h-14.46c.034 1.263.353 2.401.955 3.411a6.649 6.649 0 002.642 2.503c.561.3 1.16.525 1.794.674.635.15 1.307.226 2.012.226.551 0 1.084-.05 1.599-.149a7.753 7.753 0 001.493-.446c.477-.197.913-.44 1.306-.726a5.662 5.662 0 001.048-.988l.152-.185.783.733-.145.163a7.179 7.179 0 01-1.252 1.12c-.46.322-.964.596-1.513.823a8.892 8.892 0 01-1.688.506 9.37 9.37 0 01-1.783.17c-1.612 0-3.058-.344-4.337-1.03a7.883 7.883 0 01-1.718-1.235 7.695 7.695 0 01-1.307-1.644 7.654 7.654 0 01-.827-1.965 8.527 8.527 0 01-.276-2.188c0-.763.085-1.49.255-2.18.17-.69.425-1.34.764-1.95a7.398 7.398 0 012.816-2.867c1.196-.688 2.537-1.033 4.023-1.033.73 0 1.43.085 2.1.254.668.17 1.304.423 1.906.762a7.609 7.609 0 011.617 1.21 7.563 7.563 0 012.008 3.507c.173.676.259 1.393.259 2.148v.375h-.226zm-9.437-7.028a7.342 7.342 0 011.773-.209c.622 0 1.215.07 1.775.21a6.686 6.686 0 012.964 1.627 6.765 6.765 0 011.792 2.877c.147.478.243.98.286 1.503H85.326a7.134 7.134 0 01.281-1.503 6.698 6.698 0 011.769-2.877 6.622 6.622 0 012.96-1.628z" fill="#fff"/><defs><linearGradient id="paint0_linear_0_1790" x1="28.28" y1="14.688" x2="9.585" y2="-1.68" gradientUnits="userSpaceOnUse"><stop stop-color="#C88C61"/><stop offset="1" stop-color="#EBBE9C"/></linearGradient></defs></svg>